Title:
Clandestine Childhood Aka Infancia Clandestina

Country:
Argentina, 2011

Language: 
Spanish

Subtitle:
English

Director:
Benjamin Avila

Writers:
Benjamin Avila (screenplay), Marcelo Müller (screenplay)

Stars:
Natalia Oreiro, Ernesto Alterio, César Troncoso 

Synopsis:
Juan lives in clandestinity. Just like his mum, his dad and his adored uncle Beto, outside his home he has another name. At school, Juan is known as Ernesto. And he meets María, who only has one name. Based on true facts, set in the Argentina of 1979, this film is "one about love". 

Trivia:
The official entry of Argentina to the Best Foreign Language Film of the 85th Academy Awards 2013. Offical Section Cannes Film Festival 2012.

Imdb: 
http://www.imdb.com/title/tt1726888/?ref_=fn_al_tt_1

Trailer: 
http://www.kino-zeit.de/filme/trailer/infancia-clandestina


Media Info:

General
Complete name                            : Clandestine.Childhood.[Infancia.Clandestina].2011.DVDRip.XviD.FM-ArtSubs
Format                                   : AVI
Format/Info                              : Audio Video Interleave
File size                                : 1.28 GiB
Duration                                 : 1h 50mn
Overall bit rate                         : 1 657 Kbps
Writing application                      : VirtualDubMod 1.5.4.1 (build 2178/release)
Writing library                          : VirtualDubMod build 2178/release

Video
ID                                       : 0
Format                                   : MPEG-4 Visual
Format profile                           : Simple@L3
Format settings, BVOP                    : No
Format settings, QPel                    : No
Format settings, GMC                     : No warppoints
Format settings, Matrix                  : Custom
Codec ID                                 : XVID
Codec ID/Hint                            : XviD
Duration                                 : 1h 50mn
Bit rate                                 : 1 521 Kbps
Width                                    : 720 pixels
Height                                   : 304 pixels
Display aspect ratio                     : 2.35:1
Frame rate                               : 23.976 fps
Color space                              : YUV
Chroma subsampling                       : 4:2:0
Bit depth                                : 8 bits
Scan type                                : Progressive
Compression mode                         : Lossy
Bits/(Pixel*Frame)                       : 0.290
Stream size                              : 1.17 GiB (92%)
Writing library                          : XviD 1.1.0 Beta2 (UTC 2005-04-04)

Audio
ID                                       : 1
Format                                   : MPEG Audio
Format version                           : Version 1
Format profile                           : Layer 3
Mode                                     : Joint stereo
Mode extension                           : MS Stereo
Codec ID                                 : 55
Codec ID/Hint                            : MP3
Duration                                 : 1h 50mn
Bit rate mode                            : Constant
Bit rate                                 : 128 Kbps
Channel(s)                               : 2 channels
Sampling rate                            : 48.0 KHz
Compression mode                         : Lossy
Stream size                              : 101 MiB (8%)
Alignment                                : Aligned on interleaves
Interleave, duration                     : 83 ms (2.00 video frames)
Interleave, preload duration             : 504 ms
Writing library                          : LAME3.98r
Encoding settings                        : -m j -V 4 -q 2 -lowpass 17 -b 128

